<svg width="26" height="28" viewBox="0 0 26 28" fill="none" xmlns="http://www.w3.org/2000/svg">
<path d="M7.41004 18.4214H22.826C24.574 18.4214 26 16.9954 26 15.2474V8.7613C26 8.75555 26 8.74405 26 8.7383C26 8.72105 26 8.70955 26 8.6923C26 8.6808 26 8.6693 25.9943 8.6578C25.9943 8.6463 25.9885 8.62905 25.9885 8.61755C25.9885 8.60605 25.9828 8.59455 25.9828 8.58305C25.977 8.57155 25.977 8.56005 25.9713 8.5428C25.9655 8.5313 25.9655 8.5198 25.9598 8.5083C25.954 8.4968 25.954 8.4853 25.9482 8.4738C25.9425 8.4623 25.9368 8.4508 25.931 8.43355C25.9253 8.42205 25.9195 8.41055 25.9137 8.4048C25.908 8.3933 25.9023 8.3818 25.8965 8.3703C25.8908 8.3588 25.885 8.35305 25.8793 8.34155C25.8735 8.33005 25.862 8.31855 25.8562 8.30705C25.8505 8.29555 25.8447 8.2898 25.8333 8.2783C25.8275 8.2668 25.816 8.26105 25.8102 8.24955C25.8045 8.23805 25.793 8.2323 25.7872 8.2208C25.7815 8.2093 25.77 8.20355 25.7642 8.1978C25.7527 8.1863 25.747 8.18055 25.7355 8.16905C25.724 8.1633 25.7182 8.1518 25.7067 8.14605C25.6952 8.1403 25.6837 8.1288 25.6722 8.12305C25.6607 8.1173 25.655 8.11155 25.6435 8.1058C25.632 8.10005 25.6205 8.0943 25.609 8.0828C25.5975 8.07705 25.586 8.0713 25.5745 8.06555C25.563 8.0598 25.5515 8.05404 25.54 8.0483C25.5285 8.04255 25.517 8.0368 25.5055 8.03105C25.494 8.0253 25.4825 8.02529 25.471 8.01954C25.4595 8.01379 25.4422 8.00805 25.4307 8.00805C25.4192 8.00805 25.4077 8.0023 25.402 8.0023C25.3847 7.99655 25.3732 7.99654 25.356 7.99654C25.3502 7.99654 25.3445 7.99079 25.333 7.99079L5.79427 5.29401V2.56848C5.79427 2.53973 5.79427 2.51098 5.78852 2.48798C5.78852 2.48223 5.78852 2.47648 5.78277 2.46498C5.78277 2.44773 5.77702 2.43048 5.77702 2.41323C5.77127 2.39598 5.77127 2.38448 5.76552 2.36723C5.76552 2.35573 5.75977 2.34998 5.75977 2.33848C5.75402 2.32123 5.74827 2.30398 5.74252 2.28673C5.74252 2.28098 5.73677 2.26948 5.73677 2.26373C5.73102 2.24648 5.72527 2.23498 5.71377 2.21773C5.70802 2.21198 5.70802 2.20048 5.70227 2.19473C5.69652 2.18323 5.69077 2.17173 5.67927 2.16023C5.67352 2.14873 5.66777 2.14298 5.66202 2.13148C5.65627 2.11998 5.65052 2.11423 5.64477 2.10273C5.63902 2.09123 5.62752 2.07973 5.62177 2.06823C5.61602 2.06248 5.61027 2.05673 5.60452 2.05098C5.59302 2.03948 5.58152 2.02798 5.57002 2.01648C5.56427 2.01073 5.55852 2.00498 5.55277 1.99923C5.54127 1.98773 5.52977 1.97623 5.51252 1.96473C5.50677 1.95898 5.49527 1.95323 5.48952 1.94748C5.47802 1.93598 5.46652 1.93023 5.45502 1.91872C5.43777 1.90722 5.42052 1.89572 5.40902 1.88997C5.40326 1.88422 5.39752 1.88422 5.39177 1.87847C5.36876 1.86697 5.34001 1.85547 5.31701 1.84397L1.07922 0.0614538C0.682461 -0.105298 0.228206 0.078704 0.0614538 0.475459C-0.105298 0.872213 0.0787041 1.32647 0.475459 1.49322L4.236 3.08024V6.59928V7.15703V11.4351V15.2589V20.0889C4.236 21.6989 5.44352 23.033 7.00178 23.2342C6.72003 23.7057 6.55328 24.2577 6.55328 24.8442C6.55328 26.575 7.96204 27.978 9.68706 27.978C11.4121 27.978 12.8209 26.5693 12.8209 24.8442C12.8209 24.2692 12.6656 23.723 12.3896 23.263H19.3702C19.0942 23.7287 18.9389 24.2692 18.9389 24.8442C18.9389 26.575 20.3477 27.978 22.0727 27.978C23.7977 27.978 25.2065 26.5693 25.2065 24.8442C25.2065 23.1192 23.7977 21.7105 22.0727 21.7105H7.41004C6.51303 21.7105 5.78852 20.9802 5.78852 20.0889V17.9844C6.26003 18.2604 6.81778 18.4214 7.41004 18.4214ZM11.2741 24.8385C11.2741 25.7125 10.5611 26.4198 9.69281 26.4198C8.82455 26.4198 8.11155 25.7067 8.11155 24.8385C8.11155 23.9702 8.82455 23.2572 9.69281 23.2572C10.5611 23.2572 11.2741 23.9645 11.2741 24.8385ZM23.6597 24.8385C23.6597 25.7125 22.9467 26.4198 22.0785 26.4198C21.2102 26.4198 20.4972 25.7067 20.4972 24.8385C20.4972 23.9702 21.2102 23.2572 22.0785 23.2572C22.9467 23.2572 23.6597 23.9645 23.6597 24.8385ZM22.826 16.8689H7.41004C6.51303 16.8689 5.78852 16.1386 5.78852 15.2474V11.4236V7.14553V6.85803L24.4475 9.42831V15.2416C24.4475 16.1444 23.7172 16.8689 22.826 16.8689Z" fill="#444444"/>
</svg>
