<svg width="30" height="26" viewBox="0 0 30 26" fill="none" xmlns="http://www.w3.org/2000/svg">
<path d="M16.9457 3.51503C17.1042 3.21113 17.1885 2.87397 17.1916 2.53122C17.1916 1.31217 16.2034 0.323944 14.9843 0.323944C13.7653 0.323944 12.7771 1.31217 12.7771 2.53122C12.7801 2.87397 12.8645 3.21113 13.023 3.51503C7.75079 3.7799 2.93263 5.12949 2.93263 7.48181C2.93089 7.83009 3.21185 8.11388 3.56012 8.11562C3.58227 8.11569 3.60435 8.11467 3.62634 8.11246H26.4054C26.7537 8.11246 27.0361 7.83009 27.0361 7.48181C27.0361 5.12949 22.2368 3.7799 16.9457 3.51503ZM15.0159 1.59155C15.5313 1.59155 15.9492 2.00943 15.9492 2.52491C15.9492 3.04039 15.5313 3.45827 15.0159 3.45827C14.5004 3.45827 14.0825 3.04039 14.0825 2.52491C14.0825 2.00943 14.5004 1.59155 15.0159 1.59155ZM4.64169 6.87639C5.80839 5.82951 9.6049 4.71957 15.0159 4.71957V4.74479C20.4268 4.74479 24.2234 5.85474 25.3901 6.87639H4.64169Z" fill="#444444"/>
<path d="M5.83377 11.1522C5.4855 11.1522 5.20312 11.4346 5.20312 11.7828V18.5623C5.20312 18.9106 5.4855 19.193 5.83377 19.193C6.18205 19.193 6.46442 18.9106 6.46442 18.5623V11.7828C6.46442 11.4346 6.18205 11.1522 5.83377 11.1522Z" fill="#444444"/>
<path d="M29.3694 11.3225H27.0359V9.5188C27.0359 9.17053 26.7536 8.88815 26.4053 8.88815H3.62624C3.27796 8.88815 2.99559 9.17053 2.99559 9.5188V11.3225H0.63065C0.282373 11.3225 0 11.6048 0 11.9531C0 12.3014 0.282373 12.5838 0.63065 12.5838H3.00189V21.8921C3.00189 24.6859 5.00105 25.676 6.88039 25.676H23.2142C26.008 25.676 26.9981 23.721 26.9981 21.8921V12.5838H29.3694C29.7176 12.5838 30 12.3014 30 11.9531C30 11.6048 29.7176 11.3225 29.3694 11.3225ZM25.7746 21.8921C25.7746 23.0462 25.3332 24.4147 23.252 24.4147H6.85516C5.87765 24.4147 4.23797 24.0868 4.23797 21.8921V10.1495H25.7746V21.8921Z" fill="#444444"/>
</svg>
