<svg width="17" height="27" viewBox="0 0 17 27" fill="none" xmlns="http://www.w3.org/2000/svg">
<path d="M10.6811 2.94526C10.1358 2.03804 9.65472 1.2034 9.20566 0.441344C9.14151 0.332479 9.04528 0.223613 8.94906 0.151036C8.56415 -0.139273 8.05094 0.00588137 7.79434 0.441344C7.37736 1.2034 6.89623 2.00175 6.31887 2.94526C3.78491 7.15473 0 13.5052 0 17.1341C0 19.7832 0.962264 22.1782 2.50189 23.9201C4.04151 25.6256 6.15849 26.7143 8.5 26.7143C10.8415 26.7143 12.9585 25.6256 14.4981 23.8838C16.0377 22.1419 17 19.7469 17 17.0978C17 13.4689 13.2151 7.15473 10.6811 2.94526ZM13.3434 22.5774C12.0925 23.9926 10.3925 24.8273 8.5 24.8273C6.60755 24.8273 4.90755 23.9564 3.6566 22.5774C2.40566 21.1621 1.66792 19.2388 1.66792 17.0978C1.66792 14.0496 5.29245 7.98937 7.69811 3.96134C7.98679 3.48959 8.2434 3.01783 8.5 2.61866C8.7566 3.01783 9.01321 3.48959 9.30189 3.96134C11.7075 8.02566 15.3321 14.0496 15.3321 17.0978C15.3321 19.2388 14.5623 21.1621 13.3434 22.5774Z" fill="#444444"/>
<path d="M13.472 16.4446C13.0229 16.4083 12.638 16.8075 12.6059 17.3155C12.5739 18.1139 12.3493 18.876 11.9965 19.5292C11.6437 20.1823 11.1305 20.763 10.521 21.1258C10.1361 21.3799 9.97575 21.9605 10.2003 22.3959C10.4569 22.904 10.9701 23.0491 11.355 22.7951C12.221 22.2508 12.9267 21.4524 13.4078 20.5452C13.921 19.638 14.2097 18.5494 14.2418 17.4244C14.2739 16.9164 13.921 16.4809 13.472 16.4446Z" fill="#444444"/>
</svg>
