<svg width="21" height="34" viewBox="0 0 21 34" fill="none" xmlns="http://www.w3.org/2000/svg">
<path d="M20.0801 34C20.1901 34 20.2956 33.9563 20.3733 33.8786C20.4511 33.8008 20.4948 33.6953 20.4948 33.5854V6.93032C20.4948 5.09228 19.7646 3.32953 18.4649 2.02984C17.1652 0.730156 15.4025 0 13.5645 0C11.7264 0 9.96366 0.730156 8.66398 2.02984C7.36429 3.32953 6.63413 5.09228 6.63413 6.93032V7.96103H1.45122C1.06647 7.96147 0.697597 8.1145 0.425537 8.38657C0.153476 8.65863 0.000438964 9.02749 0 9.41225V9.82688C0.000438964 10.2116 0.153476 10.5805 0.425537 10.8526C0.697597 11.1246 1.06647 11.2777 1.45122 11.2781H12.6463C13.0311 11.2777 13.3999 11.1246 13.672 10.8526C13.9441 10.5805 14.0971 10.2116 14.0975 9.82688V9.41225C14.0971 9.02749 13.9441 8.65863 13.672 8.38657C13.3999 8.1145 13.0311 7.96147 12.6463 7.96103H7.4634V6.93032C7.4634 5.31222 8.10619 3.76039 9.25036 2.61622C10.3945 1.47205 11.9464 0.829267 13.5645 0.829267C15.1826 0.829267 16.7344 1.47205 17.8786 2.61622C19.0227 3.76039 19.6655 5.31222 19.6655 6.93032V33.5854C19.6655 33.6953 19.7092 33.8008 19.787 33.8786C19.8647 33.9563 19.9702 34 20.0801 34Z" fill="#444444"/>
<path d="M7.46306 12.7049C7.46306 12.5949 7.41937 12.4895 7.34161 12.4117C7.26385 12.334 7.15839 12.2903 7.04842 12.2903C6.93845 12.2903 6.83299 12.334 6.75523 12.4117C6.67747 12.4895 6.63379 12.5949 6.63379 12.7049V13.5342C6.63379 13.6442 6.67747 13.7496 6.75523 13.8274C6.83299 13.9051 6.93845 13.9488 7.04842 13.9488C7.15839 13.9488 7.26385 13.9051 7.34161 13.8274C7.41937 13.7496 7.46306 13.6442 7.46306 13.5342V12.7049Z" fill="#444444"/>
<path d="M9.95134 12.7049C9.95134 12.5949 9.90765 12.4895 9.82989 12.4117C9.75213 12.334 9.64667 12.2903 9.5367 12.2903C9.42674 12.2903 9.32127 12.334 9.24351 12.4117C9.16575 12.4895 9.12207 12.5949 9.12207 12.7049V15.1927C9.12207 15.3027 9.16575 15.4081 9.24351 15.4859C9.32127 15.5637 9.42674 15.6073 9.5367 15.6073C9.64667 15.6073 9.75213 15.5637 9.82989 15.4859C9.90765 15.4081 9.95134 15.3027 9.95134 15.1927V12.7049Z" fill="#444444"/>
<path d="M12.4386 12.7049C12.4386 12.5949 12.395 12.4895 12.3172 12.4117C12.2394 12.334 12.134 12.2903 12.024 12.2903C11.914 12.2903 11.8086 12.334 11.7308 12.4117C11.6531 12.4895 11.6094 12.5949 11.6094 12.7049V13.5342C11.6094 13.6442 11.6531 13.7496 11.7308 13.8274C11.8086 13.9051 11.914 13.9488 12.024 13.9488C12.134 13.9488 12.2394 13.9051 12.3172 13.8274C12.395 13.7496 12.4386 13.6442 12.4386 13.5342V12.7049Z" fill="#444444"/>
<path d="M2.48747 12.7049C2.48747 12.5949 2.44378 12.4895 2.36603 12.4117C2.28827 12.334 2.1828 12.2903 2.07284 12.2903C1.96287 12.2903 1.8574 12.334 1.77965 12.4117C1.70189 12.4895 1.6582 12.5949 1.6582 12.7049V13.5342C1.6582 13.6442 1.70189 13.7496 1.77965 13.8274C1.8574 13.9051 1.96287 13.9488 2.07284 13.9488C2.1828 13.9488 2.28827 13.9051 2.36603 13.8274C2.44378 13.7496 2.48747 13.6442 2.48747 13.5342V12.7049Z" fill="#444444"/>
<path d="M4.97575 12.7049C4.97575 12.5949 4.93207 12.4895 4.85431 12.4117C4.77655 12.334 4.67109 12.2903 4.56112 12.2903C4.45115 12.2903 4.34569 12.334 4.26793 12.4117C4.19017 12.4895 4.14648 12.5949 4.14648 12.7049V15.1927C4.14648 15.3027 4.19017 15.4081 4.26793 15.4859C4.34569 15.5637 4.45115 15.6073 4.56112 15.6073C4.67109 15.6073 4.77655 15.5637 4.85431 15.4859C4.93207 15.4081 4.97575 15.3027 4.97575 15.1927V12.7049Z" fill="#444444"/>
<path d="M7.46306 15.1927C7.46306 15.0827 7.41937 14.9773 7.34161 14.8995C7.26385 14.8218 7.15839 14.7781 7.04842 14.7781C6.93845 14.7781 6.83299 14.8218 6.75523 14.8995C6.67747 14.9773 6.63379 15.0827 6.63379 15.1927V20.1683C6.63379 20.2783 6.67747 20.3837 6.75523 20.4615C6.83299 20.5393 6.93845 20.5829 7.04842 20.5829C7.15839 20.5829 7.26385 20.5393 7.34161 20.4615C7.41937 20.3837 7.46306 20.2783 7.46306 20.1683V15.1927Z" fill="#444444"/>
<path d="M9.95134 16.8513C9.95134 16.7413 9.90765 16.6358 9.82989 16.5581C9.75213 16.4803 9.64667 16.4366 9.5367 16.4366C9.42674 16.4366 9.32127 16.4803 9.24351 16.5581C9.16575 16.6358 9.12207 16.7413 9.12207 16.8513V18.5098C9.12207 18.6198 9.16575 18.7252 9.24351 18.803C9.32127 18.8808 9.42674 18.9244 9.5367 18.9244C9.64667 18.9244 9.75213 18.8808 9.82989 18.803C9.90765 18.7252 9.95134 18.6198 9.95134 18.5098V16.8513Z" fill="#444444"/>
<path d="M12.4386 15.1927C12.4386 15.0827 12.395 14.9773 12.3172 14.8995C12.2394 14.8218 12.134 14.7781 12.024 14.7781C11.914 14.7781 11.8086 14.8218 11.7308 14.8995C11.6531 14.9773 11.6094 15.0827 11.6094 15.1927V20.1683C11.6094 20.2783 11.6531 20.3837 11.7308 20.4615C11.8086 20.5393 11.914 20.5829 12.024 20.5829C12.134 20.5829 12.2394 20.5393 12.3172 20.4615C12.395 20.3837 12.4386 20.2783 12.4386 20.1683V15.1927Z" fill="#444444"/>
<path d="M2.48747 15.1927C2.48747 15.0827 2.44378 14.9773 2.36603 14.8995C2.28827 14.8218 2.1828 14.7781 2.07284 14.7781C1.96287 14.7781 1.8574 14.8218 1.77965 14.8995C1.70189 14.9773 1.6582 15.0827 1.6582 15.1927V20.1683C1.6582 20.2783 1.70189 20.3837 1.77965 20.4615C1.8574 20.5393 1.96287 20.5829 2.07284 20.5829C2.1828 20.5829 2.28827 20.5393 2.36603 20.4615C2.44378 20.3837 2.48747 20.2783 2.48747 20.1683V15.1927Z" fill="#444444"/>
<path d="M4.97575 16.8513C4.97575 16.7413 4.93207 16.6358 4.85431 16.5581C4.77655 16.4803 4.67109 16.4366 4.56112 16.4366C4.45115 16.4366 4.34569 16.4803 4.26793 16.5581C4.19017 16.6358 4.14648 16.7413 4.14648 16.8513V18.5098C4.14648 18.6198 4.19017 18.7252 4.26793 18.803C4.34569 18.8808 4.45115 18.9244 4.56112 18.9244C4.67109 18.9244 4.77655 18.8808 4.85431 18.803C4.93207 18.7252 4.97575 18.6198 4.97575 18.5098V16.8513Z" fill="#444444"/>
<path d="M7.04842 22.2415C6.93845 22.2415 6.83299 22.2852 6.75523 22.3629C6.67747 22.4407 6.63379 22.5462 6.63379 22.6561V23.4854C6.63379 23.5954 6.67747 23.7008 6.75523 23.7786C6.83299 23.8563 6.93845 23.9 7.04842 23.9C7.15839 23.9 7.26385 23.8563 7.34161 23.7786C7.41937 23.7008 7.46306 23.5954 7.46306 23.4854V22.6561C7.46306 22.5462 7.41937 22.4407 7.34161 22.3629C7.26385 22.2852 7.15839 22.2415 7.04842 22.2415Z" fill="#444444"/>
<path d="M9.5367 19.7537C9.42674 19.7537 9.32127 19.7974 9.24351 19.8751C9.16575 19.9529 9.12207 20.0584 9.12207 20.1683V23.4854C9.12207 23.5954 9.16575 23.7008 9.24351 23.7786C9.32127 23.8563 9.42674 23.9 9.5367 23.9C9.64667 23.9 9.75213 23.8563 9.82989 23.7786C9.90765 23.7008 9.95134 23.5954 9.95134 23.4854V20.1683C9.95134 20.0584 9.90765 19.9529 9.82989 19.8751C9.75213 19.7974 9.64667 19.7537 9.5367 19.7537Z" fill="#444444"/>
<path d="M12.024 22.2415C11.914 22.2415 11.8086 22.2852 11.7308 22.3629C11.6531 22.4407 11.6094 22.5462 11.6094 22.6561V23.4854C11.6094 23.5954 11.6531 23.7008 11.7308 23.7786C11.8086 23.8563 11.914 23.9 12.024 23.9C12.134 23.9 12.2394 23.8563 12.3172 23.7786C12.395 23.7008 12.4386 23.5954 12.4386 23.4854V22.6561C12.4386 22.5462 12.395 22.4407 12.3172 22.3629C12.2394 22.2852 12.134 22.2415 12.024 22.2415Z" fill="#444444"/>
<path d="M2.07284 22.2415C1.96287 22.2415 1.8574 22.2852 1.77965 22.3629C1.70189 22.4407 1.6582 22.5462 1.6582 22.6561V23.4854C1.6582 23.5954 1.70189 23.7008 1.77965 23.7786C1.8574 23.8563 1.96287 23.9 2.07284 23.9C2.1828 23.9 2.28827 23.8563 2.36603 23.7786C2.44378 23.7008 2.48747 23.5954 2.48747 23.4854V22.6561C2.48747 22.5462 2.44378 22.4407 2.36603 22.3629C2.28827 22.2852 2.1828 22.2415 2.07284 22.2415Z" fill="#444444"/>
<path d="M4.56112 19.7537C4.45115 19.7537 4.34569 19.7974 4.26793 19.8751C4.19017 19.9529 4.14648 20.0584 4.14648 20.1683V23.4854C4.14648 23.5954 4.19017 23.7008 4.26793 23.7786C4.34569 23.8563 4.45115 23.9 4.56112 23.9C4.67109 23.9 4.77655 23.8563 4.85431 23.7786C4.93207 23.7008 4.97575 23.5954 4.97575 23.4854V20.1683C4.97575 20.0584 4.93207 19.9529 4.85431 19.8751C4.77655 19.7974 4.67109 19.7537 4.56112 19.7537Z" fill="#444444"/>
</svg>
