<svg width="23" height="27" viewBox="0 0 23 27" fill="none" xmlns="http://www.w3.org/2000/svg">
<path d="M2.18272 7.96162H8.64088C9.84568 7.9604 10.8224 7.00251 10.8236 5.82088V2.14074C10.8224 0.958909 9.84589 0.00121483 8.64088 0H2.18272C0.977714 0.00121483 0.00123868 0.958909 0 2.14074V5.82068C0.00123868 7.00251 0.977714 7.9604 2.18272 7.96162ZM0.90195 2.14074C0.902775 1.44727 1.47565 0.885412 2.18272 0.884602H8.64088C9.34774 0.885412 9.92083 1.44727 9.92165 2.14074V5.82068C9.92083 6.51414 9.34774 7.07621 8.64088 7.07682H2.18272C1.47565 7.07621 0.902569 6.51414 0.90195 5.82068V2.14074Z" fill="#444444"/>
<path d="M6.31415 6.19242H8.11826C8.36723 6.19242 8.56913 5.9944 8.56913 5.75001V2.21161C8.56913 1.96722 8.36723 1.7692 8.11826 1.7692H6.31415C6.06518 1.7692 5.86328 1.96722 5.86328 2.21161V5.75001C5.86328 5.99419 6.06518 6.19242 6.31415 6.19242ZM6.76523 2.65381H7.66718V5.30761H6.76523V2.65381Z" fill="#444444"/>
<path d="M2.70575 6.19242H4.50965C4.75883 6.19242 4.96073 5.9944 4.96073 5.75001V2.21161C4.96073 1.96722 4.75883 1.7692 4.50965 1.7692H2.70575C2.45678 1.7692 2.25488 1.96722 2.25488 2.21161V5.75001C2.25488 5.99419 2.45678 6.19242 2.70575 6.19242ZM3.15683 2.65381H4.05878V5.30761H3.15683V2.65381Z" fill="#444444"/>
<path d="M22.5493 7.51922H21.1963V3.53841C21.1963 3.29423 20.9944 3.09621 20.7454 3.09621H18.9413C18.6923 3.09621 18.4904 3.29423 18.4904 3.53841V7.51922H16.6865V3.53841C16.6865 3.29423 16.4846 3.09621 16.2354 3.09621H14.4315C14.1826 3.09621 13.9807 3.29423 13.9807 3.53841V7.51922H12.6276C12.3787 7.51922 12.1768 7.71724 12.1768 7.96162V10.6154C12.1768 10.8596 12.3787 11.0576 12.6276 11.0576H13.0787V12.7954C13.075 14.8489 13.8832 16.8236 15.3335 18.3045V20.7884C15.3335 21.0328 15.5354 21.2309 15.7846 21.2309H16.2354V26.0961C16.2354 26.3404 16.4373 26.5385 16.6865 26.5385H18.4904C18.7396 26.5385 18.9413 26.3404 18.9413 26.0961V21.2309H19.3924C19.6415 21.2309 19.8434 21.0328 19.8434 20.7884V18.3045C21.2935 16.8234 22.1019 14.8489 22.0982 12.7954V11.0576H22.5493C22.7983 11.0576 23.0002 10.8596 23.0002 10.6154V7.96162C23.0002 7.71724 22.7983 7.51922 22.5493 7.51922ZM19.3924 3.98081H20.2943V7.51922H19.3924V3.98081ZM14.8826 3.98081H15.7846V7.51922H14.8826V3.98081ZM18.0393 25.6539H17.1374V21.2309H18.0393V25.6539ZM18.9413 20.346H16.2354V18.5768H18.9413V20.346ZM21.1963 12.7954C21.2014 14.6191 20.4869 16.3739 19.2024 17.6922H15.9743C14.6898 16.3739 13.9753 14.6191 13.9807 12.7954V11.0576H21.1963V12.7954ZM22.0982 10.173H13.0785V8.40382H22.0982V10.173Z" fill="#444444"/>
<path d="M11.2745 16.3654H6.06846L8.08789 11.2166C8.17748 10.9886 8.06167 10.7325 7.82921 10.6448C7.65312 10.5782 7.45328 10.6262 7.32859 10.7653L0.563863 18.2845C0.399121 18.4679 0.417082 18.7473 0.604119 18.9089C0.686284 18.98 0.792189 19.0192 0.902017 19.0192H6.12482L4.08496 24.6206C4.00093 24.8506 4.12294 25.1037 4.35746 25.1861C4.53583 25.2489 4.73504 25.1955 4.85623 25.0527L11.621 17.0913C11.7805 16.9038 11.7549 16.6248 11.564 16.4683C11.4826 16.4017 11.3802 16.3654 11.2745 16.3654ZM5.7879 22.5736L7.18965 18.7255C7.27326 18.4954 7.15084 18.2424 6.91632 18.1604C6.86781 18.1433 6.8164 18.1346 6.76479 18.1346H1.90141L6.3453 13.1949L4.99248 16.6489C4.90309 16.8769 5.0189 17.1328 5.25136 17.2205C5.30256 17.2399 5.35706 17.2498 5.41176 17.25H10.3117L5.7879 22.5736Z" fill="#444444"/>
</svg>
