<svg width="22" height="22" viewBox="0 0 22 22" fill="none" xmlns="http://www.w3.org/2000/svg">
<path d="M19.4219 0H2.57812C1.15655 0 0 1.15655 0 2.57812V19.4219C0 20.8435 1.15655 22 2.57812 22H19.4219C20.8435 22 22 20.8435 22 19.4219V2.57812C22 1.15655 20.8435 0 19.4219 0ZM20.2812 19.4219C20.2812 19.8957 19.8957 20.2812 19.4219 20.2812H2.57812C2.10427 20.2812 1.71875 19.8957 1.71875 19.4219V2.57812C1.71875 2.10427 2.10427 1.71875 2.57812 1.71875H19.4219C19.8957 1.71875 20.2812 2.10427 20.2812 2.57812V19.4219Z" fill="#444444"/>
<path d="M12.2891 4.29688H6.27344V17.7031H7.99219V12.8906H12.2891C14.6584 12.8906 16.5859 10.963 16.5859 8.59375C16.5859 6.22445 14.6584 4.29688 12.2891 4.29688ZM12.2891 11.1719H7.99219V6.01562H12.2891C13.7106 6.01562 14.8672 7.17217 14.8672 8.59375C14.8672 10.0153 13.7106 11.1719 12.2891 11.1719Z" fill="#444444"/>
</svg>
